<?xml version="1.0" encoding="utf-8"?>
<!-- Generator: Adobe Illustrator 18.0.0, SVG Export Plug-In . SVG Version: 6.00 Build 0)  -->
<!DOCTYPE svg PUBLIC "-//W3C//DTD SVG 1.1//EN" "http://www.w3.org/Graphics/SVG/1.1/DTD/svg11.dtd">
<svg version="1.1" id="Layer_1" xmlns="http://www.w3.org/2000/svg" xmlns:xlink="http://www.w3.org/1999/xlink" x="0px" y="0px"
	 viewBox="0 0 600 209" enable-background="new 0 0 600 209" xml:space="preserve">
<g>
	<g>
		<g>
			<path d="M266.9,122.9c-4.6,0-8.7-1.9-12.3-5.8c-3.6-3.9-5.4-8.7-5.4-14.5s1.8-10.5,5.3-14.1c3.5-3.7,7.6-5.5,12.3-5.5
				s8.5,1.7,11.5,5v-19h10.8v53.4h-10.8v-5.1C275.3,121,271.5,122.9,266.9,122.9z M260.1,103c0,3.1,0.9,5.7,2.8,7.7
				c1.9,2,4.1,3,6.6,3s4.6-1,6.4-3c1.8-2,2.6-4.6,2.6-7.7c0-3.1-0.9-5.8-2.6-7.8c-1.8-2.1-3.9-3.1-6.4-3.1c-2.5,0-4.7,1.1-6.6,3.2
				C261.1,97.3,260.1,99.9,260.1,103z"/>
			<path d="M317,93.1c-3.2,0-5.6,1.1-7.2,3.4c-1.6,2.3-2.4,5.3-2.4,9v16.8h-10.8V83.6h10.8v5.1c1.4-1.6,3.1-2.9,5.2-4
				c2.1-1.1,4.2-1.7,6.4-1.7l0.1,10.2H317z"/>
			<path d="M356,122.3h-10.2v-4.7c-2.8,3.5-6.2,5.3-10.3,5.3c-4.1,0-7.5-1.2-10.3-3.6c-2.8-2.4-4.2-5.5-4.2-9.5c0-4,1.4-6.9,4.3-8.9
				c2.9-2,6.8-3,11.8-3h8.1v-0.2c0-4.1-2.2-6.2-6.6-6.2c-1.9,0-3.9,0.4-5.9,1.1c-2.1,0.7-3.9,1.7-5.3,2.8l-4.8-7
				c5.1-3.7,10.9-5.5,17.4-5.5c4.7,0,8.5,1.2,11.5,3.5c3,2.4,4.5,6.1,4.5,11.2V122.3z M345.1,107.6v-1.9h-6.8c-4.3,0-6.5,1.3-6.5,4
				c0,1.4,0.5,2.5,1.5,3.2c1,0.7,2.5,1.1,4.4,1.1c1.9,0,3.6-0.6,5.1-1.8C344.4,111.1,345.1,109.5,345.1,107.6z"/>
			<path d="M381.7,113.3c3.6,0,6.8-1.8,9.7-5.4l6.4,7.2c-5,5.2-10.4,7.8-16.2,7.8c-5.8,0-10.7-1.8-14.7-5.5c-4-3.7-6-8.5-6-14.4
				s2-10.8,6.1-14.5c4.1-3.7,8.9-5.6,14.4-5.6c2.8,0,5.6,0.6,8.5,1.7c2.9,1.2,5.4,2.9,7.5,5.1l-5.6,7.3c-1.2-1.5-2.8-2.6-4.6-3.5
				s-3.6-1.2-5.4-1.2c-2.8,0-5.3,0.9-7.3,2.8c-2,1.8-3.1,4.4-3.1,7.7c0,3.3,1,5.8,3.1,7.7C376.6,112.4,378.9,113.3,381.7,113.3z"/>
			<path d="M426.5,104.5V83.6h10.9v38.7h-10.9v-5.1c-2.7,3.8-6.2,5.7-10.4,5.7s-7.8-1.3-10.7-4s-4.3-6.6-4.3-11.8V83.6H412v21.1
				c0,6,2.2,8.9,6.6,8.9c2.2,0,4-0.8,5.6-2.3C425.7,109.7,426.5,107.4,426.5,104.5z"/>
			<path d="M455.7,122.3h-10.8V68.9h10.8V122.3z"/>
			<path d="M496.2,122.3h-10.2v-4.7c-2.8,3.5-6.2,5.3-10.3,5.3c-4.1,0-7.5-1.2-10.3-3.6c-2.8-2.4-4.2-5.5-4.2-9.5
				c0-4,1.4-6.9,4.3-8.9c2.9-2,6.8-3,11.8-3h8.1v-0.2c0-4.1-2.2-6.2-6.6-6.2c-1.9,0-3.9,0.4-5.9,1.1c-2.1,0.7-3.9,1.7-5.3,2.8
				l-4.8-7c5.1-3.7,10.9-5.5,17.4-5.5c4.7,0,8.5,1.2,11.5,3.5c3,2.4,4.5,6.1,4.5,11.2V122.3z M485.4,107.6v-1.9h-6.8
				c-4.3,0-6.5,1.3-6.5,4c0,1.4,0.5,2.5,1.5,3.2c1,0.7,2.5,1.1,4.4,1.1c1.9,0,3.6-0.6,5.1-1.8C484.6,111.1,485.4,109.5,485.4,107.6z
				"/>
			<path d="M504.8,121.1c-1.2-1.2-1.8-2.7-1.8-4.5s0.6-3.3,1.8-4.5c1.2-1.2,2.7-1.8,4.5-1.8c1.8,0,3.3,0.6,4.5,1.8
				c1.2,1.2,1.8,2.7,1.8,4.5s-0.6,3.3-1.8,4.5c-1.2,1.2-2.7,1.8-4.5,1.8C507.5,122.9,506,122.3,504.8,121.1z"/>
			<path d="M523.1,78.6c-1.2-1.2-1.8-2.7-1.8-4.5s0.6-3.3,1.8-4.5c1.2-1.2,2.7-1.8,4.5-1.8c1.8,0,3.3,0.6,4.5,1.8
				c1.2,1.2,1.8,2.7,1.8,4.5s-0.6,3.3-1.8,4.5c-1.2,1.2-2.7,1.8-4.5,1.8C525.9,80.5,524.4,79.9,523.1,78.6z M533,122.3h-10.8V83.6
				H533V122.3z"/>
			<path d="M579.2,102.9c0,5.6-1.9,10.3-5.8,14.2c-3.9,3.8-8.8,5.8-14.7,5.8c-5.9,0-10.8-1.9-14.7-5.8c-3.9-3.8-5.8-8.6-5.8-14.2
				c0-5.6,1.9-10.4,5.8-14.2s8.8-5.8,14.7-5.8c5.9,0,10.8,1.9,14.7,5.8C577.2,92.6,579.2,97.3,579.2,102.9z M549.1,102.9
				c0,3.2,0.9,5.8,2.7,7.7c1.8,2,4.1,3,6.9,3c2.8,0,5.1-1,6.9-3c1.8-2,2.7-4.6,2.7-7.7s-0.9-5.8-2.7-7.8c-1.8-2-4.1-3-6.9-3
				c-2.8,0-5.1,1-6.9,3S549.1,99.8,549.1,102.9z"/>
		</g>
		<g>
			<g>
				<path d="M127.1,172.4"/>
			</g>
			<g>
				<g>
					<g>
						<circle cx="110.1" cy="119.1" r="4.8"/>
					</g>
					<g>
						<path d="M120,113.3c-11,0-20.3-11.5-20.6-12l5.2-3.1l4.2-3.1c0,0.1,4.3,6.8,11.3,6.8V113.3z"/>
					</g>
				</g>
				<g>
					<g>
						<circle cx="144.8" cy="119.1" r="4.8"/>
					</g>
					<g>
						<path d="M134,113.3c11,0,20.7-11.5,21.1-12l-4.9-3.1l-4.5-3.1c0,0.1-4.6,6.8-11.6,6.8V113.3z"/>
					</g>
				</g>
			</g>
			<g>
				<path d="M127.1,172.4"/>
			</g>
			<g>
				<g>
					<path fill="#431C7A" d="M21.1,40.3l57.2,130.3c0.5,1,1.5,1.7,2.6,1.7h19.7c2.8,0,5.9-3.6,3.6-5.2c-7.9-5.4-19.4-15.9-21.7-36.4
						c-0.2-1.6-1.6-2.6-3.2-2.5c-2.7,0.3-6.7-1.3-9.6-11.7c-1.8-6.4,0.3-9.9,2.1-11.5c1-0.9,1.1-2.4,0.4-3.5
						c-13.5-23.3,3-41.3,11.9-48.7c1.8-1.5,1.1-4.5-1.3-5L24.2,36.4C22,35.9,20.2,38.2,21.1,40.3z"/>
				</g>
				<g>
					<path fill="#431C7A" d="M233.3,40.3l-57.2,130.3c-0.5,1-1.5,1.7-2.6,1.7h-21.7c-2.8,0-3.9-3.6-1.6-5.2
						c7.9-5.4,19.4-15.9,21.7-36.4c0.2-1.6,1.6-2.6,3.2-2.5c2.7,0.3,6.7-1.3,9.6-11.7c1.8-6.4-0.3-9.9-2.1-11.5
						c-1-0.9-1.1-2.4-0.4-3.5c13.5-23.3-3-41.3-11.9-48.7c-1.8-1.5-1.1-4.5,1.3-5l58.6-11.5C232.4,35.9,234.2,38.2,233.3,40.3z"/>
				</g>
			</g>
			<g>
				<path d="M141.8,141.7c1.5,0.7,0.2,12.9,0.2,12.9c7-3.8,8.7-16,8.7-16c2.1-0.2,9.8-6.8,9.8-6.8l0.8,1.8c-8.3,25-26.3,31-33.4,31
					h-2.4c-7.1,0-25-6-33.4-31l0.8-1.6c0,0,7.7,6.5,9.8,6.8c0,0,1.7,12.1,8.7,16c0,0-1.4-12.2,0.2-12.9
					C110.7,141.3,127.1,148.1,141.8,141.7z"/>
			</g>
			<path d="M134.9,71c13.8-16,31.2-15.7,31.2-15.7c-18.3-17.5-38.1-15.3-39-15.2c-1-0.1-19.8-2.3-38.2,15.2c0,0,15.3-0.3,31,15.7
				C119.8,71,127.5,68.6,134.9,71z"/>
			<g>
				<path d="M90.7,82c1.7-1.7,6.3-6.1,7.9-7.5c-6.9-3.2-16.1-5.4-10-11.2c1.2-1.1,2.4-1.9,3.6-2.4c-2.1-0.5-4.6-0.9-7.4-1.2
					c0,0-10.5,8.3-11,23.2c0,0-0.6,10.3,3.1,16.6c3.7,6.3,5.6,7.7,5.6,7.7l1.5,10.4l9.2,5.7l-2-18.2C91.3,105.1,83.9,88.8,90.7,82z"
					/>
				<path d="M163.8,82c-1.7-1.7-6.3-6.1-7.9-7.5c6.9-3.2,16.1-5.4,10-11.2c-1.2-1.1-2.4-1.9-3.6-2.4c2.1-0.5,4.6-0.9,7.4-1.2
					c0,0,10.5,8.3,11,23.2c0,0,0.6,10.3-3.1,16.6c-3.7,6.3-5.6,7.7-5.6,7.7l-1.5,10.4l-9.2,5.7l2-18.2
					C163.2,105.1,170.6,88.8,163.8,82z"/>
			</g>
		</g>
	</g>
	<g>
		<path d="M254.7,152.6c-1.3,0-2.3-0.4-3.2-1.3c-0.9-0.9-1.4-2-1.4-3.4s0.5-2.5,1.4-3.4c0.9-0.9,2.1-1.3,3.5-1.3
			c1.4,0,2.5,0.5,3.5,1.4l-1.1,1.4c-0.8-0.7-1.6-1-2.4-1c-0.8,0-1.5,0.3-2.1,0.8c-0.6,0.5-0.9,1.2-0.9,2s0.3,1.5,0.9,2.1
			c0.6,0.6,1.3,0.9,2.1,0.9s1.6-0.4,2.4-1.2l1.1,1.2C257.4,152.1,256.1,152.6,254.7,152.6z"/>
		<path d="M267.7,151.3c-0.9,0.9-2,1.4-3.4,1.4s-2.5-0.5-3.4-1.4c-0.9-0.9-1.4-2-1.4-3.3c0-1.3,0.5-2.4,1.4-3.3
			c0.9-0.9,2-1.4,3.4-1.4s2.5,0.5,3.4,1.4c0.9,0.9,1.4,2,1.4,3.3C269.1,149.3,268.6,150.4,267.7,151.3z M262.3,150.1
			c0.5,0.5,1.2,0.8,2,0.8c0.8,0,1.5-0.3,2-0.8c0.5-0.5,0.8-1.3,0.8-2.1s-0.3-1.6-0.8-2.1s-1.2-0.8-2-0.8c-0.8,0-1.5,0.3-2,0.8
			c-0.5,0.5-0.8,1.3-0.8,2.1S261.7,149.6,262.3,150.1z"/>
		<path d="M277.5,148.4v-4.9h1.9v9h-1.9v-1.6c-0.3,0.6-0.7,1-1.3,1.3c-0.5,0.3-1.1,0.5-1.7,0.5c-1,0-1.8-0.3-2.5-0.9
			c-0.6-0.6-0.9-1.5-0.9-2.7v-5.5h1.9v5c0,1.7,0.7,2.5,2.1,2.5c0.7,0,1.2-0.2,1.7-0.7C277.3,149.8,277.5,149.2,277.5,148.4z"/>
		<path d="M284,147.6v4.9h-1.9v-9h1.9v1.6c0.3-0.6,0.7-1,1.3-1.3c0.5-0.3,1.1-0.5,1.7-0.5c1,0,1.8,0.3,2.5,0.9
			c0.6,0.6,0.9,1.5,0.9,2.7v5.5h-1.9v-5c0-1.7-0.7-2.5-2.1-2.5c-0.7,0-1.2,0.2-1.7,0.7C284.2,146.1,284,146.8,284,147.6z"/>
		<path d="M295.1,145v4.6c0,0.4,0.1,0.8,0.3,1c0.2,0.3,0.5,0.4,1,0.4c0.4,0,0.8-0.2,1.2-0.6l0.8,1.3c-0.7,0.6-1.4,0.9-2.2,0.9
			c-0.8,0-1.5-0.3-2.1-0.8c-0.6-0.6-0.9-1.3-0.9-2.3V145h-1.1v-1.5h1.1v-2.8h1.9v2.8h2.4v1.5H295.1z"/>
		<path d="M306.9,145v4.6c0,0.4,0.1,0.8,0.3,1c0.2,0.3,0.5,0.4,1,0.4c0.4,0,0.8-0.2,1.2-0.6l0.8,1.3c-0.7,0.6-1.4,0.9-2.2,0.9
			c-0.8,0-1.5-0.3-2.1-0.8c-0.6-0.6-0.9-1.3-0.9-2.3V145h-1.1v-1.5h1.1v-2.8h1.9v2.8h2.4v1.5H306.9z"/>
		<path d="M319.8,148.8h-7.1c0,0.7,0.3,1.2,0.9,1.6c0.6,0.4,1.2,0.6,1.9,0.6c1.1,0,2-0.4,2.6-1.1l1.1,1.2c-1,1-2.2,1.5-3.8,1.5
			c-1.3,0-2.3-0.4-3.2-1.3c-0.9-0.8-1.3-2-1.3-3.4c0-1.4,0.5-2.6,1.4-3.4c0.9-0.8,2-1.3,3.2-1.3s2.3,0.4,3.1,1.1s1.3,1.8,1.3,3.1
			V148.8z M312.7,147.3h5.2c0-0.8-0.2-1.3-0.7-1.8c-0.5-0.4-1.1-0.6-1.8-0.6c-0.7,0-1.3,0.2-1.9,0.6
			C313,146,312.7,146.6,312.7,147.3z"/>
		<path d="M323,143.5l1.9,3l2-3h2.3l-3.2,4.4l3.3,4.6H327l-2.2-3l-2.1,3h-2.2l3.2-4.6l-3-4.4H323z"/>
		<path d="M333.5,145v4.6c0,0.4,0.1,0.8,0.3,1c0.2,0.3,0.5,0.4,1,0.4c0.4,0,0.8-0.2,1.2-0.6l0.8,1.3c-0.7,0.6-1.4,0.9-2.2,0.9
			c-0.8,0-1.5-0.3-2.1-0.8c-0.6-0.6-0.9-1.3-0.9-2.3V145h-1.1v-1.5h1.1v-2.8h1.9v2.8h2.4v1.5H333.5z"/>
		<path d="M344.9,152.5H343v-12.6h1.9V152.5z"/>
		<path d="M356,148.8h-7.1c0,0.7,0.3,1.2,0.9,1.6c0.6,0.4,1.2,0.6,1.9,0.6c1.1,0,2-0.4,2.6-1.1l1.1,1.2c-1,1-2.2,1.5-3.8,1.5
			c-1.3,0-2.3-0.4-3.2-1.3c-0.9-0.8-1.3-2-1.3-3.4c0-1.4,0.5-2.6,1.4-3.4c0.9-0.8,2-1.3,3.2-1.3s2.3,0.4,3.1,1.1s1.3,1.8,1.3,3.1
			V148.8z M348.9,147.3h5.2c0-0.8-0.2-1.3-0.7-1.8c-0.5-0.4-1.1-0.6-1.8-0.6c-0.7,0-1.3,0.2-1.9,0.6
			C349.2,146,348.9,146.6,348.9,147.3z"/>
		<path d="M360,147.6v4.9h-1.9v-9h1.9v1.6c0.3-0.6,0.7-1,1.3-1.3c0.5-0.3,1.1-0.5,1.7-0.5c1,0,1.8,0.3,2.5,0.9
			c0.6,0.6,0.9,1.5,0.9,2.7v5.5h-1.9v-5c0-1.7-0.7-2.5-2.1-2.5c-0.7,0-1.2,0.2-1.7,0.7C360.3,146.1,360,146.8,360,147.6z"/>
		<path d="M377.4,143.5v7.9c0,1.6-0.4,2.8-1.3,3.6s-2,1.2-3.3,1.2c-1.4,0-2.6-0.4-3.7-1.3l0.9-1.4c0.9,0.7,1.8,1,2.7,1
			c0.9,0,1.6-0.2,2.1-0.7c0.5-0.5,0.8-1.2,0.8-2.2v-1.2c-0.3,0.5-0.7,1-1.2,1.3c-0.5,0.3-1.1,0.5-1.8,0.5c-1.2,0-2.2-0.4-3-1.3
			c-0.8-0.8-1.2-1.9-1.2-3.1c0-1.2,0.4-2.3,1.2-3.1s1.8-1.3,3-1.3c1.2,0,2.2,0.5,2.9,1.5v-1.3H377.4z M370.4,147.6
			c0,0.7,0.2,1.4,0.7,1.9c0.5,0.5,1.1,0.8,1.9,0.8s1.4-0.3,1.9-0.8s0.7-1.2,0.7-1.9s-0.2-1.4-0.7-2c-0.5-0.5-1.1-0.8-1.9-0.8
			s-1.4,0.3-1.8,0.8C370.6,146.2,370.4,146.9,370.4,147.6z"/>
		<path d="M382.3,145v4.6c0,0.4,0.1,0.8,0.3,1c0.2,0.3,0.5,0.4,1,0.4c0.4,0,0.8-0.2,1.2-0.6l0.8,1.3c-0.7,0.6-1.4,0.9-2.2,0.9
			c-0.8,0-1.5-0.3-2.1-0.8c-0.6-0.6-0.9-1.3-0.9-2.3V145h-1.1v-1.5h1.1v-2.8h1.9v2.8h2.4v1.5H382.3z"/>
		<path d="M389,147.6v4.9h-1.9v-12.6h1.9v5.2c0.3-0.6,0.7-1,1.2-1.3c0.5-0.3,1.1-0.5,1.8-0.5c1,0,1.8,0.3,2.5,0.9
			c0.6,0.6,0.9,1.5,0.9,2.7v5.5h-1.9v-5c0-1.7-0.7-2.5-2.1-2.5c-0.7,0-1.2,0.2-1.7,0.7C389.2,146.1,389,146.8,389,147.6z"/>
	</g>
</g>
</svg>
